<svg width="24" height="24" viewBox="0 0 24 24" fill="none" xmlns="http://www.w3.org/2000/svg">
<g clip-path="url(#clip0_567_747)">
<path d="M13.0547 10.9454L13.0547 -1.92117C13.0549 -2.50356 12.5825 -2.97598 12.0001 -2.97574C11.4175 -2.97574 10.9456 -2.5038 10.9456 -1.92117L10.9456 10.9454L-1.92104 10.9454C-2.50368 10.9454 -2.97562 11.4174 -2.97561 12C-2.97586 12.5824 -2.50344 13.0548 -1.92104 13.0546L10.9456 13.0546L10.9455 25.9212C10.9453 26.5036 11.4177 26.976 12.0001 26.9757C12.2914 26.9757 12.5551 26.8578 12.7459 26.6669C12.9367 26.4761 13.0547 26.2125 13.0547 25.9212L13.0547 13.0546L25.9213 13.0546C26.2126 13.0546 26.4763 12.9366 26.6671 12.7458C26.8579 12.555 26.9759 12.2913 26.9759 12C26.9761 11.4176 26.5037 10.9452 25.9213 10.9454L13.0547 10.9454Z" fill="white"/>
</g>
<defs>
<clipPath id="clip0_567_747">
<rect width="22.5" height="22.5" fill="white" transform="translate(0.75 0.75)"/>
</clipPath>
</defs>
</svg>
