<svg width="35" height="37" viewBox="0 0 35 37" fill="none" xmlns="http://www.w3.org/2000/svg">
<path fill-rule="evenodd" clip-rule="evenodd" d="M26.1191 1.62606L27.5393 0.529121L34.6098 10.6548V23.1157L32.8841 11.4763L26.1191 1.62606Z" fill="white"/>
<path fill-rule="evenodd" clip-rule="evenodd" d="M21.9281 1.68318L23.5624 0.378429C26.1843 4.26073 28.8062 8.1434 31.4281 12.0257C31.4281 16.8035 31.4281 21.5809 31.4281 26.3591L29.4511 12.9171L21.9277 1.68355L21.9281 1.68318Z" fill="white"/>
<path fill-rule="evenodd" clip-rule="evenodd" d="M17.4648 1.81733L19.3333 0.285233C22.2205 4.67485 25.1077 9.06446 27.9945 13.4545C27.9945 18.8568 27.9945 24.2584 27.9945 29.6608L25.7322 14.4217L17.4648 1.81733Z" fill="white"/>
<path fill-rule="evenodd" clip-rule="evenodd" d="M13.0004 1.78389L14.8203 0.259304C17.9725 5.15624 21.1246 10.0535 24.2771 14.9505C24.2771 20.9767 24.2771 27.0036 24.2771 33.0298H24.2767L21.9637 15.6923L13 1.78426L13.0004 1.78389Z" fill="white"/>
<path fill-rule="evenodd" clip-rule="evenodd" d="M2.93004 11.586L10.2568 -0.000408173L20.5092 16.2123V36.165L0 28.6995L2.93004 11.586Z" fill="white"/>
<path fill-rule="evenodd" clip-rule="evenodd" d="M0 8.74688L10.2568 -0.000408173V19.3682L0 28.6995V8.74688Z" fill="#9D9E9E"/>
</svg>
