<svg width="64" height="64" viewBox="0 0 64 64" fill="none" xmlns="http://www.w3.org/2000/svg">
<path d="M51.539 16.5843C51.5028 15.2865 50.7422 14.0491 49.541 13.5058C48.9072 13.2221 48.2614 13.1738 47.5853 13.1738H42.5391C42.5391 12.4495 42.5391 11.6829 42.5271 10.9405C42.5271 10.9103 42.5271 10.8741 42.5271 10.8379C42.5029 10.3127 42.2072 9.96264 41.7786 9.79966C41.7605 9.79363 41.7484 9.78759 41.7303 9.78155C41.6518 9.75137 41.5734 9.72723 41.4949 9.70912C41.4647 9.70309 41.4285 9.69101 41.3983 9.68498C41.344 9.67894 41.2957 9.66687 41.2414 9.66687H36.0926C36.0926 9.24434 36.0745 8.82181 35.99 8.39929C35.7304 7.10152 34.7948 5.93655 33.5876 5.3933C32.3562 4.84402 30.974 4.86816 29.7728 5.47781C28.7346 6.00295 27.9438 6.9808 27.6179 8.09144C27.467 8.60451 27.4428 9.17794 27.4428 9.66083H23.954C23.3624 9.66083 22.7588 9.6548 22.1673 9.67894C21.4973 9.70309 21.0325 10.192 21.0083 10.856C21.0023 11.0491 21.0144 11.2544 21.0144 11.4536V13.1678C19.2035 13.1678 17.3444 13.1618 15.5155 13.1678C13.59 13.1738 12.0387 14.701 12.0145 16.6325C12.0145 16.9102 12.0206 17.1879 12.0206 17.4716V53.5916C12.0206 54.7868 11.8576 56.1389 12.4491 57.2193C13.095 58.4024 14.3384 58.9819 15.6483 58.9819H46.7403C47.1568 58.9819 47.5793 59 47.9958 59C49.6497 58.994 51.1949 57.8712 51.4847 56.1992C51.5511 55.7948 51.5631 55.4085 51.5631 55.0041V16.6325C51.5571 16.6144 51.539 16.5963 51.539 16.5843ZM31.7647 7.54819C32.2114 7.54819 32.652 7.72928 32.9659 8.04919C33.1952 8.27856 33.3401 8.55622 33.4065 8.85803C33.4488 8.98479 33.4669 9.11758 33.4608 9.25038C33.4669 9.40732 33.4427 9.55218 33.3944 9.68498C33.316 9.97471 33.1711 10.2403 32.9478 10.4697C32.6399 10.7835 32.1751 10.9586 31.7345 10.9526C30.8412 10.9345 30.0323 10.1679 30.0565 9.25038C30.0927 8.32685 30.823 7.54819 31.7647 7.54819ZM24.6602 47.8815H19.3363C18.6241 47.8815 18.0989 47.302 18.0688 46.6139C18.0386 45.9318 18.6724 45.3463 19.3363 45.3463H24.6602C25.3724 45.3463 25.8976 45.9258 25.9278 46.6139C25.9579 47.296 25.3242 47.8815 24.6602 47.8815ZM45.0985 44.1451C44.7242 44.5194 44.35 44.8936 43.9818 45.2618C42.3641 46.8795 40.7404 48.5032 39.1227 50.1209C38.1086 51.1349 37.0946 52.149 36.0745 53.1691C35.5916 53.652 34.7646 53.652 34.2817 53.1691C34.1067 52.9941 33.9316 52.819 33.7566 52.644C32.5494 51.4368 31.3422 50.2295 30.1349 49.0223C29.6339 48.5213 29.6702 47.7366 30.1349 47.2296C30.5997 46.7225 31.4568 46.7588 31.9277 47.2296C32.1027 47.4046 32.2778 47.5797 32.4528 47.7547C33.3643 48.6662 34.2697 49.5716 35.1811 50.483C35.2536 50.4106 35.332 50.3321 35.4045 50.2597L40.2635 45.4006C41.2776 44.3866 42.2977 43.3725 43.3118 42.3524C43.8128 41.8514 44.5975 41.8876 45.1045 42.3524C45.6055 42.8112 45.5693 43.6743 45.0985 44.1451ZM44.2051 38.103H19.3363C18.6241 38.103 18.0989 37.5175 18.0688 36.8294C18.0386 36.1473 18.6724 35.5618 19.3363 35.5618C19.3484 35.5618 19.3665 35.5678 19.3786 35.5678C20.3866 35.5437 21.4007 35.5739 22.4087 35.5739H44.2051C44.9174 35.5739 45.4425 36.1533 45.4727 36.8414C45.5029 37.5175 44.863 38.103 44.2051 38.103ZM44.2051 28.2641H19.3363C18.6241 28.2641 18.0989 27.6907 18.0688 27.0026C18.0386 26.3205 18.6724 25.735 19.3363 25.735C19.3484 25.735 19.3665 25.735 19.3786 25.735C20.3866 25.7108 21.4007 25.729 22.4087 25.729H44.2051C44.9174 25.729 45.4425 26.3084 45.4727 26.9965C45.5029 27.6786 44.863 28.2641 44.2051 28.2641Z" fill="#C26733"/>
</svg>
