<svg width="50" height="50" viewBox="0 0 50 50" fill="none" xmlns="http://www.w3.org/2000/svg">
<path d="M11.9457 1C5.92053 1 1 3.90001 1 7.50003C1 11.1 5.92053 14.0001 11.9457 14.0001C17.9708 14.0001 22.8913 11.1 22.8913 7.50003C22.8913 3.90001 17.9708 1 11.9457 1Z" fill="#C26733"/>
<path d="M1.30103 12.2002V16.9002C2.90773 19.3002 7.0249 21.1002 11.9454 21.1002C16.7655 21.1002 20.7823 19.4002 22.4894 17.0002V12.2002C20.1798 14.2002 16.3639 15.5002 11.9454 15.5002C7.42658 15.5002 3.61066 14.2002 1.30103 12.2002Z" fill="#C26733"/>
<path d="M1.30103 19.1992V23.8992C2.90773 26.3993 7.0249 28.0993 11.9454 28.0993C16.7655 28.0993 20.7823 26.3993 22.4894 23.9992V19.1992C20.1798 21.1992 16.3639 22.4992 11.9454 22.4992C7.42658 22.5992 3.61066 21.1992 1.30103 19.1992Z" fill="#C26733"/>
<path d="M1.30103 26.2014V30.9014C2.90773 33.4014 7.0249 35.1015 11.9454 35.1015C16.7655 35.1015 20.7823 33.4014 22.4894 31.0014V26.2014C20.1798 28.2014 16.3639 29.5014 11.9454 29.5014C7.42658 29.6014 3.61066 28.3014 1.30103 26.2014Z" fill="#C26733"/>
<path d="M1.30103 33.2004C1.30103 33.3004 1.30103 33.3004 1.30103 33.2004V37.9005C2.90773 40.4005 7.0249 42.1005 11.9454 42.1005C16.7655 42.1005 20.7823 40.4005 22.4894 38.0005V33.2004C20.1798 35.2004 16.3639 36.5005 11.9454 36.5005C7.42658 36.6005 3.61066 35.3004 1.30103 33.2004Z" fill="#C26733"/>
<path d="M1.30103 40.1001V44.8001C2.90773 47.3002 7.0249 49.0002 11.9454 49.0002C16.7655 49.0002 20.7823 47.3002 22.4894 44.9001V40.1001C20.1798 42.1001 16.3639 43.4001 11.9454 43.4001C7.42658 43.5001 3.61066 42.2001 1.30103 40.1001ZM38.456 28.6001C44.2803 28.6001 49 25.8 49 22.3C49 18.8 44.2803 16 38.456 16C32.6317 16 27.912 18.8 27.912 22.3C27.912 25.8 32.6317 28.6001 38.456 28.6001Z" fill="#C26733"/>
<path d="M28.2133 26.7991C28.1128 26.7991 28.1128 26.7991 28.2133 26.7991V31.3991C29.82 33.7991 33.8367 35.3991 38.5564 35.3991C43.1757 35.3991 47.092 33.7991 48.7991 31.4991V26.7991C46.5899 28.7991 42.8744 29.9991 38.5564 29.9991C34.138 30.0991 30.4225 28.7991 28.2133 26.7991Z" fill="#C26733"/>
<path d="M28.2133 33.5989C28.1128 33.5989 28.1128 33.5989 28.2133 33.5989V38.1989C29.82 40.5989 33.8367 42.1989 38.5564 42.1989C43.1757 42.1989 47.092 40.5989 48.7991 38.2989V33.5989C46.5899 35.5989 42.8744 36.7989 38.5564 36.7989C34.138 36.8989 30.4225 35.5989 28.2133 33.5989Z" fill="#C26733"/>
<path d="M28.2133 40.4016C28.1128 40.4016 28.1128 40.4016 28.2133 40.4016V45.0016C29.82 47.4016 33.8367 49.0017 38.5564 49.0017C43.1757 49.0017 47.092 47.4016 48.7991 45.1016V40.4016C46.5899 42.4016 42.8744 43.6016 38.5564 43.6016C34.138 43.7016 30.4225 42.4016 28.2133 40.4016Z" fill="#C26733"/>
</svg>
