<svg width="64" height="64" viewBox="0 0 64 64" fill="none" xmlns="http://www.w3.org/2000/svg">
<path d="M56.278 52.8197L52.8055 49.2073V13.3291C52.8055 11.2699 51.1309 9.59534 49.0717 9.59534H39.7372C37.678 9.59534 36.0034 11.2699 36.0034 13.3291V49.7337C36.0038 49.9456 36.0762 50.151 36.2088 50.3162L43.6764 59.6507C43.7639 59.7597 43.8747 59.8477 44.0007 59.9082C44.1267 59.9686 44.2647 60 44.4045 60C44.5442 60 44.6822 59.9686 44.8083 59.9082C44.9343 59.8477 45.0451 59.7597 45.1326 59.6507L49.3331 54.401H55.6059C55.789 54.401 55.9682 54.3471 56.1209 54.246C56.2737 54.145 56.3933 54.0012 56.465 53.8327C56.5366 53.6641 56.5571 53.4782 56.5238 53.2981C56.4906 53.1179 56.4051 52.9516 56.278 52.8197ZM50.9386 20.7967H46.2714C46.0238 20.7967 45.7864 20.8951 45.6113 21.0701C45.4363 21.2452 45.3379 21.4826 45.3379 21.7302V47.8668C45.3379 48.1144 45.4363 48.3518 45.6113 48.5269C45.7864 48.7019 46.0238 48.8003 46.2714 48.8003H50.9386V49.7337L50.0052 50.6672H38.8038L37.8703 49.7337V48.8003H42.5376C42.7851 48.8003 43.0226 48.7019 43.1976 48.5269C43.3727 48.3518 43.471 48.1144 43.471 47.8668V21.7302C43.471 21.4826 43.3727 21.2452 43.1976 21.0701C43.0226 20.8951 42.7851 20.7967 42.5376 20.7967H37.8703V18.9298H50.9386V20.7967Z" fill="#C26633"/>
<path d="M34.7527 51.4811H34.749C34.3527 50.9849 34.1368 50.3687 34.1366 49.7337V30.1686C34.1366 29.9259 34.0433 29.6944 33.8753 29.5208L9.60554 4.28025C9.47567 4.14812 9.30955 4.05744 9.12817 4.01968C8.94678 3.98191 8.75828 3.99876 8.58647 4.06808C8.41465 4.1374 8.26724 4.2561 8.16286 4.40916C8.05848 4.56223 8.0018 4.7428 8 4.92807V53.4675C8 53.7151 8.09835 53.9525 8.2734 54.1276C8.44846 54.3026 8.68588 54.401 8.93345 54.401H35.1429C35.3189 54.401 35.4913 54.3513 35.6402 54.2576C35.7891 54.1638 35.9086 54.0299 35.9847 53.8712C36.0608 53.7126 36.0905 53.5356 36.0704 53.3608C36.0503 53.186 35.9811 53.0204 35.871 52.8832L34.7508 51.483L34.7527 51.4811ZM34.0545 44.5139C33.981 44.6783 33.8615 44.8179 33.7105 44.916C33.5594 45.014 33.3833 45.0663 33.2032 45.0665H18.268C18.0204 45.0665 17.783 44.9681 17.6079 44.7931C17.4329 44.618 17.3345 44.3806 17.3345 44.133V27.3309C17.3345 27.1415 17.392 26.9566 17.4995 26.8007C17.607 26.6448 17.7594 26.5252 17.9365 26.458C18.1135 26.3907 18.3068 26.3789 18.4908 26.4241C18.6747 26.4693 18.8405 26.5694 18.9662 26.7111L33.9014 43.5132C34.0204 43.6476 34.0982 43.8135 34.1254 43.991C34.1525 44.1684 34.1279 44.35 34.0545 44.5139Z" fill="#C26633"/>
</svg>
