<svg width="64" height="64" viewBox="0 0 64 64" fill="none" xmlns="http://www.w3.org/2000/svg">
<path d="M60.812 15.916C58.856 16 54.968 16.228 52.64 16.804C51.608 17.056 50.756 17.716 50.252 18.664C49.736 19.624 49.664 20.752 50.036 21.772L55.136 35.62C55.688 37.108 57.116 38.104 58.7 38.104H60.86C61.484 38.104 62 37.588 62 36.964V17.068C62 16.42 61.46 15.892 60.812 15.916ZM31.052 50.068C31.556 50.44 32.252 50.38 32.696 49.936C32.936 49.696 33.068 49.372 33.068 49.036C33.068 48.688 32.936 48.364 32.696 48.124L27.632 43.06C27.164 42.592 27.164 41.836 27.632 41.368C28.1 40.9 28.856 40.9 29.324 41.368L32.024 44.068L34.388 46.432H34.4L35.612 47.656C36.272 48.304 37.328 48.304 37.988 47.656C38.636 47.008 38.648 45.952 38.012 45.292L33.632 40.768L33.332 40.468L32.456 39.544C31.988 39.076 32 38.308 32.48 37.852C32.96 37.396 33.716 37.396 34.172 37.876L40.976 44.908C41.636 45.592 42.704 45.628 43.424 45.004C43.784 44.668 44 44.212 44.012 43.72C44.024 43.228 43.832 42.76 43.472 42.412L39.308 38.38L36.56 35.728C36.092 35.26 36.08 34.504 36.536 34.036C37.004 33.556 37.76 33.544 38.24 34L46.292 41.8C46.928 42.424 47.96 42.412 48.584 41.8C48.908 41.476 49.088 41.056 49.076 40.6C49.064 40.144 48.884 39.724 48.548 39.412L33.32 25.48C30.824 25.972 28.64 28.3 28.628 28.324C28.556 28.408 28.472 28.468 28.388 28.528C24.152 31.264 21.656 29.032 21.548 28.936C19.304 26.896 20.36 23.68 21.344 22.096C22.22 20.656 23.144 19.456 24.068 18.448H15.392C15.344 18.772 15.296 19.084 15.2 19.408L11.204 32.608C18.188 40.468 27.392 47.428 31.052 50.068ZM3.14 35.224H5.084C6.764 35.224 8.228 34.144 8.708 32.536L12.896 18.712C13.196 17.716 13.088 16.672 12.584 15.772C12.092 14.872 11.276 14.236 10.304 13.96C7.58 13.216 4.94 13.024 3.152 13C2.516 13 2 13.504 2 14.152V34.084C2 34.708 2.516 35.224 3.14 35.224Z" fill="#C26633"/>
<path d="M47.432 20.92L34.604 15.82C33.944 15.556 33.248 15.508 32.6 15.676C30.596 16.204 26.732 17.896 23.384 23.356C23.372 23.392 21.824 25.948 23.168 27.172C23.204 27.196 24.452 28.168 26.972 26.584C27.572 25.972 30.32 23.32 33.596 23.02C33.932 22.984 34.268 23.092 34.52 23.332L50.144 37.636C51.344 37.324 52.208 36.304 52.616 35.716L47.792 22.6C47.588 22.06 47.468 21.496 47.432 20.92Z" fill="#C26633"/>
</svg>
