<svg width="32" height="32" viewBox="0 0 32 32" fill="none" xmlns="http://www.w3.org/2000/svg">
<path d="M15.9999 2.6665C13.1719 2.66968 10.4607 3.79451 8.46095 5.79421C6.46125 7.79391 5.33643 10.5052 5.33325 13.3332C5.33325 17.6732 8.48392 21.2772 11.8213 25.0918C12.8773 26.2998 13.9706 27.5492 14.9439 28.8132C15.0685 28.9748 15.2285 29.1056 15.4115 29.1956C15.5946 29.2857 15.7959 29.3325 15.9999 29.3325C16.2039 29.3325 16.4052 29.2857 16.5883 29.1956C16.7714 29.1056 16.9314 28.9748 17.0559 28.8132C18.0293 27.5492 19.1226 26.2998 20.1786 25.0918C23.5159 21.2772 26.6666 17.6732 26.6666 13.3332C26.6634 10.5052 25.5386 7.79391 23.5389 5.79421C21.5392 3.79451 18.8279 2.66968 15.9999 2.6665ZM15.9999 17.3332C15.2088 17.3332 14.4354 17.0986 13.7776 16.659C13.1198 16.2195 12.6072 15.5948 12.3044 14.8639C12.0016 14.133 11.9224 13.3287 12.0768 12.5528C12.2311 11.7769 12.6121 11.0642 13.1715 10.5047C13.7309 9.94533 14.4436 9.56437 15.2196 9.41003C15.9955 9.25569 16.7997 9.3349 17.5307 9.63765C18.2616 9.9404 18.8863 10.4531 19.3258 11.1109C19.7653 11.7687 19.9999 12.542 19.9999 13.3332C19.9999 14.394 19.5785 15.4115 18.8283 16.1616C18.0782 16.9117 17.0608 17.3332 15.9999 17.3332Z" fill="#C26733"/>
</svg>
