<svg width="64" height="64" viewBox="0 0 64 64" fill="none" xmlns="http://www.w3.org/2000/svg">
<path d="M44.8333 32.0005C43.1848 32.003 41.5602 32.3954 40.0922 33.1456C38.6242 33.8958 37.3545 34.9826 36.3867 36.3172L23.7867 32.5372L17.4867 22.0372C17.1758 21.5218 16.738 21.0947 16.2152 20.7965C15.6924 20.4983 15.1019 20.339 14.5 20.3339H7.5C6.57174 20.3339 5.6815 20.7026 5.02513 21.359C4.36875 22.0154 4 22.9056 4 23.8339C4 24.7621 4.36875 25.6524 5.02513 26.3087C5.6815 26.9651 6.57174 27.3339 7.5 27.3339H12.5167L18.49 37.2972C18.9145 37.9869 19.5664 38.5068 20.3333 38.7672V46.5372C20.3384 47.4432 20.6413 48.3224 21.1953 49.0394C21.7493 49.7563 22.5237 50.2712 23.3991 50.5046C24.2746 50.7381 25.2025 50.6772 26.0399 50.3313C26.8774 49.9854 27.5778 49.3737 28.0333 48.5905L31.6733 42.1972L34.38 43.0139C34.485 45.0608 35.1881 47.032 36.4023 48.6833C37.6164 50.3346 39.2883 51.5935 41.2108 52.3041C43.1333 53.0147 45.2221 53.1457 47.2183 52.681C49.2146 52.2163 51.0307 51.1762 52.4417 49.6896C53.8527 48.203 54.7967 46.3351 55.1567 44.3173C55.5167 42.2996 55.2769 40.2205 54.4671 38.3377C53.6572 36.4548 52.3129 34.8508 50.6005 33.7244C48.8881 32.598 46.883 31.9986 44.8333 32.0005ZM26.0033 47.4239C25.8028 47.7579 25.4991 48.0177 25.138 48.1641C24.7769 48.3105 24.3781 48.3356 24.0015 48.2355C23.6249 48.1354 23.2911 47.9157 23.0504 47.6093C22.8096 47.303 22.6749 46.9267 22.6667 46.5372V39.5372L29.3867 41.5439L26.0033 47.4239ZM44.8333 48.3339C43.644 48.3321 42.4837 47.9668 41.5078 47.2871C40.532 46.6073 39.7872 45.6455 39.3733 44.5305L43.8067 45.8605C44.2538 46.0198 44.7287 46.0865 45.2024 46.0565C45.6762 46.0265 46.1389 45.9005 46.5624 45.6861C46.9859 45.4716 47.3613 45.1733 47.6659 44.8092C47.9704 44.4451 48.1978 44.0229 48.334 43.5682C48.4703 43.1135 48.5126 42.6358 48.4585 42.1642C48.4043 41.6926 48.2548 41.237 48.019 40.825C47.7832 40.413 47.4661 40.0533 47.0869 39.7677C46.7077 39.4821 46.2744 39.2767 45.8133 39.1639L41.3333 37.8105C42.3444 37.0585 43.5733 36.6571 44.8333 36.6672C46.3804 36.6672 47.8642 37.2818 48.9581 38.3757C50.0521 39.4697 50.6667 40.9534 50.6667 42.5005C50.6667 44.0476 50.0521 45.5313 48.9581 46.6253C47.8642 47.7193 46.3804 48.3339 44.8333 48.3339Z" fill="#C26633"/>
<path d="M58.8333 18.0006H56.9433C53.7952 15.0089 49.6196 13.3387 45.2767 13.3339H44.2033C43.8353 13.3348 43.4707 13.2631 43.1304 13.123C42.7901 12.9829 42.4807 12.777 42.22 12.5172C41.7357 12.0274 41.1575 11.6406 40.5199 11.38C39.8824 11.1193 39.1987 10.9903 38.51 11.0006H34.59C31.9188 10.9981 29.2855 11.6316 26.9078 12.8489C24.5301 14.0661 22.4764 15.8321 20.9167 18.0006H19.6567C19.429 17.9998 19.206 18.0656 19.0153 18.19C18.8246 18.3144 18.6744 18.4919 18.5834 18.7006C18.495 18.9088 18.4678 19.138 18.505 19.3611C18.5422 19.5843 18.6422 19.7922 18.7934 19.9606C19.0546 20.2245 19.2891 20.5137 19.4934 20.8239L25.0934 30.1572C25.2464 30.4073 25.488 30.5906 25.77 30.6706L34.9167 33.4239H35.2433C35.5397 33.4197 35.8233 33.3029 36.0367 33.0972C38.2549 31.0663 41.1078 29.8659 44.1108 29.7C47.1138 29.5341 50.0816 30.4129 52.51 32.1872C52.6326 32.2792 52.772 32.346 52.9205 32.3841C53.0689 32.4221 53.2233 32.4305 53.375 32.4088C53.5267 32.3872 53.6726 32.3358 53.8044 32.2578C53.9363 32.1797 54.0514 32.0765 54.1433 31.9539L59.7667 24.5339C59.9181 24.332 60 24.0863 60 23.8339V19.1672C60 18.8578 59.8771 18.5611 59.6583 18.3423C59.4395 18.1235 59.1428 18.0006 58.8333 18.0006ZM34.59 13.3339H38.5333C38.9014 13.333 39.266 13.4047 39.6063 13.5448C39.9466 13.6849 40.256 13.8908 40.5167 14.1506C40.9927 14.6319 41.5596 15.0138 42.1845 15.2742C42.8094 15.5345 43.4797 15.6681 44.1567 15.6672H45.23C48.0516 15.6627 50.8144 16.473 53.1867 18.0006H23.9267C25.2849 16.5278 26.9338 15.3527 28.7692 14.5494C30.6045 13.7462 32.5866 13.3323 34.59 13.3339Z" fill="#C26633"/>
</svg>
