<svg width="5" height="8" viewBox="0 0 5 8" fill="none" xmlns="http://www.w3.org/2000/svg">
<path d="M0.1912 7.82391C0.0687747 7.71112 0 7.55817 0 7.39869C0 7.23921 0.0687747 7.08626 0.1912 6.97348L3.42372 3.99637L0.1912 1.01926C0.0722446 0.905828 0.00642252 0.753904 0.00791025 0.59621C0.00939798 0.438515 0.0780768 0.287667 0.199154 0.176156C0.320232 0.0646448 0.484022 0.00139332 0.655245 2.28882e-05C0.826468 -0.00134754 0.991426 0.0592737 1.11459 0.16883L4.8088 3.57115C4.93123 3.68394 5 3.83689 5 3.99637C5 4.15585 4.93123 4.3088 4.8088 4.42158L1.11459 7.82391C0.992127 7.93666 0.826056 8 0.652894 8C0.479733 8 0.313662 7.93666 0.1912 7.82391Z" fill="#8A8A8A"/>
</svg>
