<svg width="50" height="50" viewBox="0 0 50 50" fill="none" xmlns="http://www.w3.org/2000/svg">
<path d="M44.2733 31.1954C43.1343 30.0532 41.713 29.2331 40.1541 28.8187C38.5951 28.4043 36.9542 28.4102 35.3983 28.836L20.414 13.8516C22.0862 7.65648 16.1158 1.59653 9.88262 3.25016C9.74807 3.28323 9.62465 3.35129 9.52487 3.44742C9.42508 3.54356 9.35249 3.66436 9.31443 3.79759C9.27637 3.93082 9.2742 4.07174 9.30814 4.20608C9.34209 4.34042 9.41094 4.4634 9.50772 4.56256L13.9765 9.03131L12.7343 12.8282L9.21865 13.9766L4.78115 9.53912C4.68637 9.4255 4.56148 9.3409 4.42081 9.29502C4.28014 9.24915 4.12938 9.24384 3.98584 9.27973C3.84229 9.31562 3.71177 9.39124 3.60924 9.49792C3.50671 9.6046 3.43632 9.73801 3.40615 9.88287C1.98881 15.7567 7.47704 21.4871 13.3985 20.3593L28.8358 35.8047C27.5592 41.2689 32.1618 46.9896 37.8046 46.8282C45.8736 46.894 50.0139 36.861 44.2733 31.1954ZM42.4062 40.1563C42.3993 40.293 42.3567 40.4255 42.2827 40.5407C42.2087 40.6558 42.1058 40.7496 41.9843 40.8126L37.953 42.8985C37.8411 42.9535 37.7183 42.9829 37.5937 42.9844C37.4436 42.9864 37.2965 42.9428 37.1718 42.8594L33.3515 40.4141C33.2352 40.3406 33.1406 40.2374 33.0775 40.1152C33.0143 39.993 32.9849 39.8562 32.9921 39.7188L33.1952 35.1876C33.2026 35.051 33.2454 34.9187 33.3194 34.8036C33.3933 34.6886 33.4959 34.5947 33.6171 34.5313L37.6483 32.4454C37.7697 32.381 37.9059 32.35 38.0432 32.3555C38.1804 32.361 38.3138 32.4028 38.4296 32.4766L42.2499 34.9297C42.3665 35.001 42.4615 35.1026 42.5248 35.2237C42.5881 35.3448 42.6173 35.4808 42.6093 35.6172L42.4062 40.1563Z" fill="#C26733"/>
<path d="M34.7422 35.7109L34.5703 39.3438L37.6328 41.3047L40.8672 39.6328L41.0313 36L37.9687 34.0391L34.7422 35.7109Z" fill="#C26733"/>
<path d="M31.3907 22.6173L40.9845 13.0235L44.1407 11.8985C44.3501 11.8235 44.5404 11.7035 44.6984 11.5469C44.8563 11.3903 44.978 11.201 45.0548 10.9923L46.5548 7.09383C46.6649 6.81298 46.691 6.50619 46.63 6.21077C46.5689 5.91534 46.4234 5.64402 46.211 5.42977L44.7892 4.01571C44.5753 3.7977 44.3024 3.64684 44.0041 3.58162C43.7057 3.51639 43.3948 3.53964 43.1095 3.64852L38.586 5.41415C38.3915 5.49017 38.2143 5.60482 38.0653 5.75118C37.9163 5.89754 37.7984 6.07257 37.7188 6.26571L36.5704 9.0079L27.1798 18.4063L31.3907 22.6173ZM16.2501 25.422C16.1954 25.461 4.77353 36.8829 4.77353 36.8829C4.22355 37.4327 3.7873 38.0856 3.48971 38.8041C3.19212 39.5226 3.03902 40.2927 3.03916 41.0704C2.93044 46.242 9.57514 48.9758 13.1642 45.2577C13.1642 45.2577 24.5704 33.8438 24.6173 33.7891L16.2501 25.422ZM18.172 33.1798C18.3191 33.0375 18.5161 32.9586 18.7207 32.96C18.9253 32.9613 19.1212 33.0428 19.2664 33.187C19.4116 33.3312 19.4945 33.5266 19.4973 33.7312C19.5001 33.9358 19.4225 34.1333 19.2813 34.2814L12.1407 41.422C11.9938 41.5648 11.7966 41.6442 11.5917 41.6431C11.3867 41.642 11.1904 41.5604 11.045 41.416C10.8996 41.2716 10.8167 41.0759 10.8141 40.871C10.8116 40.6661 10.8896 40.4684 11.0314 40.3204L18.172 33.1798ZM8.61728 37.8985L15.7579 30.7579C15.8302 30.6855 15.916 30.628 16.0105 30.5888C16.1051 30.5496 16.2064 30.5294 16.3087 30.5294C16.411 30.5294 16.5123 30.5496 16.6068 30.5888C16.7014 30.628 16.7872 30.6855 16.8595 30.7579C17.0058 30.9054 17.088 31.1048 17.088 31.3126C17.088 31.5204 17.0058 31.7198 16.8595 31.8673L9.71885 39.0079C9.5709 39.1498 9.37313 39.228 9.16812 39.2255C8.96311 39.223 8.76728 39.1401 8.62283 38.9946C8.47837 38.8491 8.39684 38.6527 8.3958 38.4477C8.39476 38.2427 8.4743 38.0455 8.61728 37.8985Z" fill="#C26733"/>
</svg>
