<svg width="50" height="46" viewBox="0 0 50 46" fill="none" xmlns="http://www.w3.org/2000/svg">
<g clip-path="url(#clip0_567_1379)">
<path fill-rule="evenodd" clip-rule="evenodd" d="M24.8123 0.00488281H46.48V24.4153H44.1875V22.9597H27.1049V25.473H37.2084V28.1672H27.1049V30.6806H37.2084V33.3838H30.564C29.9858 33.1759 29.3873 33.0131 28.87 32.8685C28.3222 32.7238 27.7744 32.5792 27.2368 32.4255C26.8919 32.326 26.476 32.2175 26.1513 32.0638C25.6441 31.8378 25.2181 31.5937 24.8123 31.3225V25.3917C24.9543 25.0662 25.0761 24.7227 25.1674 24.3881C25.2688 23.9813 25.3398 23.5835 25.3804 23.1676C25.4311 22.7156 25.4413 22.2183 25.279 21.7844C25.208 21.5945 25.1065 21.4318 24.9746 21.2871C25.3398 20.6091 25.5528 19.8315 25.6137 19.1444C25.7152 18.0686 25.5123 16.5859 24.8833 15.6637C24.8529 15.6275 24.8326 15.6004 24.8123 15.5733V0.00488281ZM22.9661 31.3406C22.6719 32.6244 22.3778 33.9172 22.1952 35.0293C22.0227 36.1413 21.9517 37.0635 21.8908 37.9947C21.5967 37.4432 21.3025 36.8917 20.9779 36.4758C20.6533 36.069 20.2982 35.7887 19.933 35.5175C19.4867 36.1503 19.0302 36.7922 18.8984 37.1719C18.7766 37.5607 18.9795 37.6873 19.223 39.1157C19.4664 40.5442 19.7505 43.2745 20.0345 45.9958C24.5892 45.9958 30.6147 45.9958 35.1694 45.9958C34.8144 43.2113 34.4593 40.4267 33.8811 38.5371C33.3029 36.6476 32.5015 35.644 31.2437 34.8756C29.9959 34.1071 26.8209 33.5737 25.6137 33.0222C24.3964 32.4707 23.6762 31.9011 22.9661 31.3406ZM21.2923 28.9719V30.9157C21.2923 31.2682 21.1199 31.5756 20.8054 31.7926L17.2855 34.1975L13.7655 31.7926C13.451 31.5756 13.2786 31.2682 13.2786 30.9157V28.9267L13.0047 28.6645C12.4873 28.1943 12.2134 27.6429 12.1729 26.9829L12.0917 25.8618H12.0714C11.8178 25.7895 11.6149 25.7171 11.4526 25.5996C11.3005 25.4911 11.1889 25.3374 11.0773 25.0391C10.9556 24.7407 10.8237 24.2977 10.7223 23.8999C10.631 23.5021 10.5701 23.1495 10.5498 22.8421C10.5194 22.5348 10.5295 22.2726 10.6107 22.0737C10.6918 21.8657 10.9048 21.703 11.057 21.6668C11.2092 21.6216 11.2903 21.6488 11.3512 21.6307C11.4222 21.6126 11.3208 21.5855 11.3208 21.5493V21.5131C11.3005 21.4951 11.2903 21.477 11.27 21.4589C10.702 20.7989 10.2759 19.497 10.1643 18.3398C10.0426 17.1735 10.2353 16.1519 10.4281 15.1212C10.7831 15.3201 11.128 15.519 11.7772 15.2116C12.4265 14.9043 13.3699 14.0906 14.4451 13.521C15.5204 12.9605 16.7275 12.644 17.9752 12.6983C19.223 12.7525 20.5011 13.1684 21.2315 13.7199C21.9619 14.2804 22.1343 14.9675 22.3169 15.6546C22.885 15.6456 23.453 15.6366 23.8588 16.2242C24.2646 16.8119 24.5182 18.0053 24.4269 19.054C24.3254 20.1028 23.8892 21.0068 23.4429 21.4679C23.4023 21.5131 23.3617 21.5493 23.3212 21.5855L23.311 21.6216C23.4226 21.6307 23.5342 21.6488 23.6356 21.6849C23.8486 21.7572 24.0515 21.8838 24.1428 22.1279C24.2341 22.372 24.224 22.7246 24.1834 23.0772C24.153 23.4298 24.0921 23.7824 24.0008 24.135C23.8994 24.4876 23.7675 24.8492 23.6559 25.1024C23.5342 25.3555 23.4327 25.5002 23.2704 25.6177C23.1183 25.7352 22.9053 25.8076 22.6618 25.8799C22.6111 25.8889 22.5604 25.898 22.5096 25.916L22.4386 26.9919C22.3879 27.6429 22.114 28.1853 21.617 28.6645L21.2923 28.9719ZM12.2033 31.3406C12.4975 32.6244 12.7916 33.9172 12.9742 35.0293C13.1467 36.1413 13.2177 37.0635 13.2786 37.9947C13.5727 37.4432 13.8669 36.8917 14.1915 36.4758C14.5161 36.069 14.8712 35.7887 15.2364 35.5175C15.6928 36.1503 16.1392 36.7922 16.271 37.1719C16.3928 37.5607 16.1899 37.6873 15.9464 39.1157C15.703 40.5442 15.4189 43.2745 15.1349 45.9958C10.5802 45.9958 4.55468 45.9958 0 45.9958C0.355042 43.2113 0.720227 40.4267 1.29844 38.5371C1.8665 36.6476 2.66788 35.644 3.92575 34.8756C5.17346 34.1071 8.34855 33.5737 9.56583 33.0222C10.773 32.4707 11.4932 31.9011 12.2033 31.3406ZM38.2532 25.473H50V45.9958H46.3279V41.3127H41.9355V45.9958H38.2532V25.473ZM39.8458 26.8111H41.7326V29.6499H39.8458V26.8111ZM39.8458 36.0509H41.7326V38.8897H39.8458V36.0509ZM46.5307 36.0509H48.4175V38.8897H46.5307V36.0509ZM43.1832 36.0509H45.07V38.8897H43.1832V36.0509ZM39.8458 31.431H41.7326V34.2698H39.8458V31.431ZM46.5307 31.431H48.4175V34.2698H46.5307V31.431ZM43.1832 31.431H45.07V34.2698H43.1832V31.431ZM46.5307 26.8111H48.4175V29.6499H46.5307V26.8111ZM43.1832 26.8111H45.07V29.6499H43.1832V26.8111ZM33.9521 35.8972H37.2084V38.5914H35.1288C35.0984 38.4829 35.068 38.3653 35.0375 38.2569C34.7636 37.3799 34.4289 36.5933 33.9521 35.8972ZM35.6766 41.1047H37.2084V45.9958H36.3765L36.3563 45.8783C36.1838 44.5131 36.0114 43.148 35.7882 41.7828C35.7578 41.5568 35.7172 41.3307 35.6766 41.1047ZM27.1049 2.12045H44.1875V4.63381H27.1049V2.12045ZM27.1049 17.7521H44.1875V20.2655H27.1049V17.7521ZM27.1049 12.5355H44.1875V15.0489H27.1049V12.5355ZM27.1049 7.328H44.1875V9.84136H27.1049V7.328Z" fill="#C26733"/>
</g>
<defs>
<clipPath id="clip0_567_1379">
<rect width="50" height="46" fill="white"/>
</clipPath>
</defs>
</svg>
