<svg width="64" height="64" viewBox="0 0 64 64" fill="none" xmlns="http://www.w3.org/2000/svg">
<path d="M3.00166 45.0984C3.00063 45.4568 3.1914 45.7882 3.50174 45.9674L4.56979 46.5839C5.23535 46.9681 6.0675 46.4892 6.06971 45.7207L6.10898 32.0384C6.11001 31.68 5.91913 31.3484 5.60865 31.1693L4.54059 30.5532C3.87503 30.1693 3.04314 30.6482 3.04093 31.4166L3.00166 45.0984ZM11.7111 31.3843C11.0455 31.0003 10.2136 31.4792 10.2113 32.2476L10.1721 45.9301C10.171 46.2886 10.362 46.6202 10.6726 46.7993L16.6975 50.2734C17.3634 50.6573 18.1954 50.1778 18.197 49.4092L18.2211 38.0883C18.2211 37.9096 18.3781 37.6355 18.5351 37.5449L18.5375 37.5437L18.9621 37.2969C19.6267 36.9107 19.6251 35.9503 18.9593 35.5662L11.7111 31.3843Z" fill="#C26633"/>
<path d="M20.9754 40.0453C20.3095 39.6612 19.4774 40.1407 19.4757 40.9094L19.4468 54.5879C19.446 54.9459 19.6368 55.277 19.9468 55.456L21.0119 56.0709C21.6777 56.4552 22.5101 55.9758 22.5118 55.2071L22.5428 41.5293C22.5436 41.1711 22.3528 40.8398 22.0425 40.6608L20.9754 40.0453ZM7.37102 31.4586C7.37121 31.4588 7.37131 31.459 7.37131 31.4593L7.3283 46.0524C7.32649 46.6645 7.99037 47.0468 8.51883 46.7381C8.76102 46.5966 8.91022 46.3375 8.91103 46.057L8.95259 31.5855C8.95393 31.1188 8.44759 30.8274 8.04477 31.063L7.37122 31.457C7.37066 31.4573 7.37056 31.4581 7.37102 31.4586Z" fill="#C26633"/>
<path d="M58.0442 16.9319C57.5681 16.6572 56.9814 16.6582 56.5063 16.9347L54.7302 17.9682C54.6343 18.0239 54.5253 18.0533 54.4144 18.0533C54.3034 18.0533 54.1945 18.0239 54.0986 17.9682L41.9748 10.974C41.8796 10.9186 41.8005 10.8392 41.7454 10.7437C41.6904 10.6482 41.6614 10.54 41.6613 10.4298C41.6612 10.3196 41.6899 10.2112 41.7447 10.1156C41.7995 10.02 41.8785 9.94043 41.9736 9.88483C42.8297 9.38656 42.8282 8.14936 41.9709 7.65321L41.6109 7.44487C41.1355 7.16975 40.5491 7.17028 40.0742 7.44626L5.96505 27.2681C4.94628 27.8601 4.94853 29.3324 5.96909 29.9213C6.44567 30.1963 7.03309 30.1948 7.50826 29.9174L9.27252 28.8872C9.273 28.8869 9.27345 28.8866 9.27385 28.8862C9.27425 28.8858 9.27471 28.8854 9.2752 28.8852C9.37076 28.8299 9.47922 28.8008 9.58963 28.8008C9.70032 28.8008 9.80906 28.83 9.9048 28.8856C12.3658 30.3069 21.8692 35.7807 22.0551 35.9038C22.4222 36.1454 22.4295 36.6984 22.0588 36.9435C21.2181 37.4991 21.1934 38.7121 22.0661 39.2158L22.4017 39.4095C22.879 39.685 23.4672 39.6842 23.9436 39.4073L58.0483 19.5863C59.0675 18.9939 59.0652 17.5211 58.0442 16.9319ZM17.8951 26.4983C17.4966 26.5236 17.2612 26.2242 17.2576 25.8752L17.2539 25.461C17.2527 24.8741 17.0173 24.7413 16.5101 25.0323C15.7783 25.4549 15.1395 26.5598 15.1419 27.3991L15.1456 27.8097C15.1463 27.8924 15.1308 27.9746 15.0999 28.0513C15.0689 28.1281 15.0232 28.1981 14.9652 28.2572C14.9072 28.3162 14.8382 28.3633 14.762 28.3958C14.6858 28.4282 14.604 28.4452 14.5213 28.446H14.5164C14.3503 28.446 14.1909 28.3805 14.0728 28.2636C13.9548 28.1466 13.8877 27.9879 13.8861 27.8217L13.8825 27.4063C13.8788 26.1106 14.7555 24.5903 15.8797 23.9407C17.2539 23.1485 18.5098 23.9286 18.5134 25.4525L18.5182 25.8631C18.5198 26.0301 18.4551 26.1909 18.3383 26.3102C18.2215 26.4295 18.0621 26.4964 17.8951 26.4983ZM28.3042 33.3282C27.9081 33.3487 27.6714 33.0528 27.6678 32.7038L27.663 32.2897C27.663 31.7269 27.4456 31.5579 26.9179 31.861C26.1886 32.2836 25.5486 33.3897 25.551 34.2278L25.5558 34.6383C25.5574 34.8053 25.4927 34.9661 25.3759 35.0854C25.2591 35.2047 25.0997 35.2728 24.9327 35.2747H24.9255C24.7596 35.2747 24.6003 35.2093 24.4823 35.0927C24.3643 34.976 24.297 34.8175 24.2951 34.6516L24.2915 34.2362C24.2879 32.9393 25.1646 31.419 26.2876 30.7706C27.6521 29.9845 28.92 30.744 28.9237 32.28L28.9273 32.6906C28.9282 32.7733 28.9129 32.8555 28.8821 32.9323C28.8513 33.0092 28.8057 33.0792 28.7478 33.1384C28.6899 33.1976 28.621 33.2449 28.5449 33.2774C28.4688 33.31 28.387 33.3272 28.3042 33.3282ZM39.1057 14.4566H39.0985C38.9325 14.4566 38.7733 14.3912 38.6553 14.2745C38.5373 14.1579 38.47 13.9994 38.4681 13.8335L38.4645 13.4193C38.4633 12.8542 38.2471 12.6888 37.7194 12.9906C36.9889 13.4133 36.3501 14.5182 36.3525 15.3574L36.3573 15.768C36.3581 15.8508 36.3426 15.9329 36.3117 16.0097C36.2807 16.0865 36.235 16.1564 36.177 16.2155C36.119 16.2746 36.05 16.3217 35.9738 16.3541C35.8976 16.3865 35.8158 16.4036 35.733 16.4044H35.727C35.5609 16.4044 35.4014 16.3388 35.2834 16.2219C35.1654 16.105 35.0982 15.9462 35.0966 15.7801L35.093 15.3647C35.0882 14.0678 35.9661 12.5487 37.0903 11.899C38.4403 11.1189 39.7203 11.8604 39.724 13.4109L39.7288 13.8202C39.7304 13.9872 39.6657 14.148 39.5489 14.2673C39.4321 14.3866 39.2727 14.4547 39.1057 14.4566ZM49.5136 21.2853H49.5075C49.3413 21.2856 49.1817 21.2201 49.0636 21.1032C48.9455 20.9862 48.8784 20.8272 48.8772 20.661L48.8736 20.2456C48.8723 19.6998 48.6659 19.509 48.1297 19.8193C47.3979 20.242 46.7603 21.3469 46.7628 22.1861L46.7664 22.5967C46.7677 22.7634 46.7028 22.9239 46.586 23.043C46.4692 23.162 46.31 23.2299 46.1433 23.2318H46.136C45.9703 23.2315 45.8114 23.166 45.6936 23.0494C45.5759 22.9328 45.5088 22.7745 45.5069 22.6088L45.5021 22.1934C45.4985 20.8965 46.3763 19.3762 47.4994 18.7277C48.8639 17.9392 50.1294 18.706 50.1342 20.2371L50.1379 20.6501C50.1391 20.8171 50.0741 20.9777 49.9571 21.0968C49.84 21.2159 49.6805 21.2837 49.5136 21.2853ZM24.7962 40.3709C24.1815 40.7282 23.8027 41.3848 23.8012 42.0957L23.7763 53.4435C23.7729 54.9877 25.4464 55.9531 26.7815 55.177L59.9249 35.9091C60.539 35.5521 60.9177 34.8961 60.9197 34.1858L60.9523 22.8392C60.9567 21.2945 59.2829 20.328 57.9473 21.1042L24.7962 40.3709Z" fill="#C26633"/>
<path d="M28.3042 33.3282C27.9081 33.3487 27.6714 33.0528 27.6678 32.7038L27.663 32.2897C27.663 31.7269 27.4456 31.5579 26.9179 31.861C26.1886 32.2836 25.5486 33.3897 25.551 34.2278L25.5558 34.6383C25.5574 34.8053 25.4927 34.9661 25.3759 35.0854C25.2591 35.2047 25.0997 35.2728 24.9327 35.2747H24.9255C24.7596 35.2747 24.6003 35.2093 24.4823 35.0927C24.3643 34.976 24.297 34.8175 24.2951 34.6516L24.2915 34.2362C24.2879 32.9393 25.1646 31.419 26.2876 30.7706C27.6521 29.9845 28.92 30.744 28.9237 32.28L28.9273 32.6906C28.9282 32.7733 28.9129 32.8555 28.8821 32.9323C28.8513 33.0092 28.8057 33.0792 28.7478 33.1384C28.6899 33.1976 28.621 33.2449 28.5449 33.2774C28.4688 33.31 28.387 33.3272 28.3042 33.3282Z" fill="#C26633"/>
<path d="M17.8951 26.4983C17.4966 26.5236 17.2612 26.2242 17.2576 25.8752L17.2539 25.461C17.2527 24.8741 17.0173 24.7413 16.5101 25.0323C15.7783 25.4549 15.1395 26.5598 15.1419 27.3991L15.1456 27.8097C15.1463 27.8924 15.1308 27.9746 15.0999 28.0513C15.0689 28.1281 15.0232 28.1981 14.9652 28.2572C14.9072 28.3162 14.8382 28.3633 14.762 28.3958C14.6858 28.4282 14.604 28.4452 14.5213 28.446H14.5164C14.3503 28.446 14.1909 28.3805 14.0728 28.2636C13.9548 28.1466 13.8877 27.9879 13.8861 27.8217L13.8825 27.4063C13.8788 26.1106 14.7555 24.5903 15.8797 23.9407C17.2539 23.1485 18.5098 23.9286 18.5134 25.4525L18.5182 25.8631C18.5198 26.0301 18.4551 26.1909 18.3383 26.3102C18.2215 26.4295 18.0621 26.4964 17.8951 26.4983Z" fill="#C26633"/>
<path d="M39.1057 14.4566H39.0985C38.9325 14.4566 38.7733 14.3912 38.6553 14.2745C38.5373 14.1579 38.47 13.9994 38.4681 13.8335L38.4645 13.4193C38.4633 12.8542 38.2471 12.6888 37.7194 12.9906C36.9889 13.4133 36.3501 14.5182 36.3525 15.3574L36.3573 15.768C36.3581 15.8508 36.3426 15.9329 36.3117 16.0097C36.2807 16.0865 36.235 16.1564 36.177 16.2155C36.119 16.2746 36.05 16.3217 35.9738 16.3541C35.8976 16.3865 35.8158 16.4036 35.733 16.4044H35.727C35.5609 16.4044 35.4014 16.3388 35.2834 16.2219C35.1654 16.105 35.0982 15.9462 35.0966 15.7801L35.093 15.3647C35.0882 14.0678 35.9661 12.5487 37.0903 11.899C38.4403 11.1189 39.7203 11.8604 39.724 13.4109L39.7288 13.8202C39.7304 13.9872 39.6657 14.148 39.5489 14.2673C39.4321 14.3866 39.2727 14.4547 39.1057 14.4566Z" fill="#C26633"/>
<path d="M49.5136 21.2853H49.5075C49.3413 21.2856 49.1817 21.2201 49.0636 21.1032C48.9455 20.9862 48.8784 20.8272 48.8772 20.661L48.8736 20.2456C48.8723 19.6998 48.6659 19.509 48.1297 19.8193C47.3979 20.242 46.7603 21.3469 46.7628 22.1861L46.7664 22.5967C46.7677 22.7634 46.7028 22.9239 46.586 23.043C46.4692 23.162 46.31 23.2299 46.1433 23.2318H46.136C45.9703 23.2315 45.8114 23.166 45.6936 23.0494C45.5759 22.9328 45.5088 22.7745 45.5069 22.6088L45.5021 22.1934C45.4985 20.8965 46.3763 19.3762 47.4994 18.7277C48.8639 17.9392 50.1294 18.706 50.1342 20.2371L50.1379 20.6501C50.1391 20.8171 50.0741 20.9777 49.9571 21.0968C49.84 21.2159 49.6805 21.2837 49.5136 21.2853Z" fill="#C26633"/>
</svg>
