<svg width="64" height="64" viewBox="0 0 64 64" fill="none" xmlns="http://www.w3.org/2000/svg">
<path d="M25.1072 54.7752H33.5564C34.0987 54.7752 34.542 54.3319 34.542 53.7897V39.7783C34.542 38.8014 35.341 38.0023 36.317 38.0023H44.4485C45.4255 38.0023 46.2246 38.8014 46.2246 39.7783V53.7897C46.2246 54.3319 46.6679 54.7752 47.2101 54.7752H57.2812C57.8235 54.7752 58.2668 54.3319 58.2668 53.7897V33.9898C58.2668 33.1755 57.9662 32.4764 57.3773 31.9142L41.3721 16.6576C40.8185 16.1287 39.9481 16.1287 39.3935 16.6576L26.342 29.0993C28.0733 29.613 29.3109 31.2511 29.2405 33.1375L29.1463 35.6755C29.1159 36.5041 28.8372 37.266 28.3844 37.8929C28.7126 38.3666 28.9247 38.926 28.9799 39.5272C29.3775 41.229 29.3737 43.3932 29.173 45.0617C28.7382 48.6766 27.2971 51.9547 25.1072 54.7752ZM3.30021 36.349L25.034 37.1566C25.9358 37.1899 26.693 36.4869 26.7263 35.5851L26.8205 33.0481C26.8547 32.1463 26.1508 31.3891 25.249 31.3558L17.3734 31.0637L17.3781 31.0447L11.3908 30.823L11.3937 30.8411L3.51615 30.5491C2.61434 30.5158 1.85712 31.2188 1.82288 32.1196L1.7287 34.6576C1.69541 35.5585 2.39935 36.3157 3.30021 36.349ZM12.1119 29.3467L17.0661 29.5312C17.7938 29.5578 18.4112 28.9995 18.4559 28.2736L19.0923 13.6792C19.1694 11.5769 17.2716 9.80273 15.1702 9.72663C13.0688 9.64957 11.0236 11.282 10.9475 13.3833L10.8191 28.0073C10.82 28.7283 11.3908 29.32 12.1119 29.3467ZM21.0044 25.4303L38.3166 8.79818C38.8769 8.26071 39.6008 7.99531 40.3229 8.00006C41.0439 7.99531 41.7678 8.26071 42.3262 8.79818L50.2475 16.4084V13.0656C50.2475 12.4568 50.7441 11.9602 51.3529 11.9602H54.2695C54.8774 11.9602 55.3739 12.4568 55.3739 13.0656V21.3331L62.1432 27.836C64.4263 30.0287 61.6999 33.1004 59.1828 31.1883L41.3122 14.0369C40.7585 13.5051 39.8843 13.5051 39.3326 14.0369L23.8658 28.8805L20.836 28.7683C20.8531 28.6551 20.8664 28.5409 20.8731 28.4249L20.875 28.4021L21.0044 25.4303ZM26.5712 39.8782C26.5922 39.3236 26.1593 38.8585 25.6047 38.8375L2.61053 37.9842C2.05689 37.9633 1.59077 38.3961 1.56984 38.9507L1.44237 42.3915C1.43285 42.4895 1.41002 42.5846 1.40622 42.6845L1.00288 53.5518C0.986707 53.978 1.01429 54.3157 1.74963 54.3424L6.63347 54.524C6.90554 54.5288 7.15287 54.271 7.23658 54.0123L9.29038 47.6292C9.29134 47.6292 9.29419 47.6302 9.29419 47.6302C9.29704 47.5503 9.36363 47.4856 9.44544 47.4875C9.52535 47.4894 9.58813 47.5569 9.58718 47.6378L9.57862 53.9114C9.57862 54.2472 9.84212 54.6477 10.1779 54.6553L17.9051 54.8732C18.2171 54.8855 18.493 54.6734 18.5634 54.369L19.4947 51.4952C19.5147 51.4381 19.7249 51.4029 19.7573 51.5789L20.3489 54.4137C20.388 54.7324 20.6534 54.9759 20.9739 54.9883L21.6912 55.0149C28.7068 47.8128 26.5712 39.8782 26.5712 39.8782ZM40.4056 27.213C41.393 27.213 42.3358 27.4032 43.1995 27.7485C43.4031 27.8294 43.5458 27.9835 43.6124 28.1947C43.678 28.4049 43.6476 28.6123 43.5268 28.7959L41.9457 31.176C41.7783 31.4271 41.4863 31.5432 41.1923 31.4728C40.9402 31.4119 40.6767 31.3805 40.4056 31.3805C40.1364 31.3805 39.8729 31.4119 39.6208 31.4728C39.3269 31.5432 39.0348 31.4271 38.8674 31.176L37.2873 28.7959C37.1646 28.6123 37.1351 28.4049 37.2008 28.1937C37.2655 27.9835 37.4091 27.8294 37.6136 27.7485C38.4774 27.4032 39.4201 27.213 40.4056 27.213ZM45.7927 29.4779C46.7373 30.4406 47.4251 31.6573 47.7457 33.0148C47.8484 33.4505 47.7561 33.8671 47.4784 34.2181C47.2015 34.5682 46.8163 34.7547 46.3692 34.7547H43.7807C43.7807 34.0136 43.541 33.3277 43.1358 32.7703C42.9569 32.5268 42.9512 32.2138 43.1168 31.9627L44.6987 29.5816C44.8205 29.398 45.0012 29.2886 45.221 29.2687C45.4417 29.2487 45.6386 29.32 45.7927 29.4779ZM42.3662 34.7547H38.4469C38.4469 34.2134 38.6657 33.7235 39.0206 33.3696C39.3754 33.0148 39.8653 32.795 40.4056 32.795C40.9469 32.795 41.4378 33.0148 41.7926 33.3696C42.1465 33.7235 42.3662 34.2134 42.3662 34.7547ZM37.0315 34.7547H34.443C33.9969 34.7547 33.6116 34.5682 33.3339 34.2181C33.057 33.8671 32.9638 33.4505 33.0665 33.0148C33.3881 31.6573 34.0749 30.4416 35.0195 29.4779C35.1746 29.32 35.3715 29.2487 35.5912 29.2687C35.811 29.2886 35.9917 29.398 36.1135 29.5816L37.6945 31.9627C37.8619 32.2138 37.8553 32.5258 37.6774 32.7703C37.2721 33.3277 37.0315 34.0136 37.0315 34.7547Z" fill="#C26633"/>
</svg>
