<svg width="130" height="37" viewBox="0 0 130 37" fill="none" xmlns="http://www.w3.org/2000/svg">
<g clip-path="url(#clip0_409_1760)">
<path d="M55.9425 24.2558H55.0902C54.749 24.2558 54.4296 23.9578 54.1951 23.4249L52.2136 19.121C52.0219 18.6945 51.5533 18.2473 51.2549 18.0767C51.4251 17.9918 51.66 17.7569 51.7878 17.5017L53.5563 13.6236C53.7907 13.0907 54.1098 12.7927 54.451 12.7927H55.0902V10.875L54.451 10.662C53.3003 10.662 52.2564 11.3436 51.6811 12.5792L49.8701 16.4574C49.657 16.9899 49.2309 17.3097 48.8048 17.3097H44.5647V10.6616H42.4336V26.3227H44.5647V19.2274H49.1884C49.6781 19.2274 50.0832 19.6321 50.2963 20.1646L52.3207 24.4689C52.8956 25.7049 53.9403 26.3865 55.0906 26.3865L55.9429 26.1735V24.2558H55.9425ZM61.0225 26.323H63.1536V21.5287H68.0328C71.0373 21.5287 73.4664 19.0785 73.4664 16.0955C73.4664 13.0907 71.0373 10.662 68.0328 10.662H61.0228V26.323H61.0225ZM68.0325 12.6863C69.8013 12.6863 71.3353 14.306 71.3353 16.0955C71.3353 17.864 69.7799 19.5047 68.0325 19.5047H63.1532V12.6863H68.0325ZM79.8244 22.0405H87.4951L88.7735 26.323H90.9046L86.217 10.662H81.1032L76.4156 26.323H78.5467L79.8252 22.0405H79.8244ZM82.6583 12.5796H84.6609L86.9193 20.1229H80.3998L82.6583 12.5796ZM105.232 24.107H107.639C110.878 24.107 113.626 21.4434 113.626 18.1834C113.626 14.8595 111.027 12.2388 107.639 12.2388H105.232V10.662H103.101V12.2388H100.693C97.284 12.2388 94.7057 14.8595 94.7057 18.1834C94.7057 21.4434 97.4332 24.107 100.693 24.107H103.101V26.323H105.232V24.107ZM96.794 18.1834C96.794 16.0313 98.5411 14.2203 100.693 14.2203H103.101V22.1251H100.693C98.5411 22.1251 96.794 20.3352 96.794 18.183V18.1834ZM105.232 22.1255V14.2207H107.639C109.791 14.2207 111.539 16.0316 111.539 18.1838C111.539 20.3359 109.791 22.1258 107.639 22.1258H105.232V22.1255ZM124.46 12.5796H130V10.6623H116.789V12.5796H122.329V26.323H124.46V12.5796Z" fill="white"/>
<path fill-rule="evenodd" clip-rule="evenodd" d="M26.1191 1.62606L27.5393 0.529123L34.6098 10.6548V23.1157L32.8841 11.4763L26.1191 1.62606Z" fill="white"/>
<path fill-rule="evenodd" clip-rule="evenodd" d="M21.9281 1.68318L23.5624 0.378431C26.1843 4.26073 28.8062 8.1434 31.4281 12.0257C31.4281 16.8035 31.4281 21.5809 31.4281 26.3591L29.4511 12.9171L21.9277 1.68355L21.9281 1.68318Z" fill="white"/>
<path fill-rule="evenodd" clip-rule="evenodd" d="M17.4661 1.81734L19.3345 0.285236C22.2217 4.67485 25.1089 9.06447 27.9957 13.4545C27.9957 18.8568 27.9957 24.2584 27.9957 29.6608L25.7335 14.4217L17.4661 1.81734Z" fill="white"/>
<path fill-rule="evenodd" clip-rule="evenodd" d="M13.0016 1.78389L14.8216 0.259306C17.9737 5.15624 21.1258 10.0535 24.2783 14.9505C24.2783 20.9767 24.2783 27.0036 24.2783 33.0298H24.278L21.965 15.6923L13.0012 1.78427L13.0016 1.78389Z" fill="white"/>
<path fill-rule="evenodd" clip-rule="evenodd" d="M2.93053 11.586L10.2573 -0.000406265L20.5097 16.2123V36.165L0.000488281 28.6995L2.93053 11.586Z" fill="white"/>
<path fill-rule="evenodd" clip-rule="evenodd" d="M0.000488281 8.74688L10.2573 -0.000406265V19.3682L0.000488281 28.6995V8.74688Z" fill="#9D9E9E"/>
</g>
<defs>
<clipPath id="clip0_409_1760">
<rect width="130" height="36.165" fill="white"/>
</clipPath>
</defs>
</svg>
