<svg width="64" height="64" viewBox="0 0 64 64" fill="none" xmlns="http://www.w3.org/2000/svg">
<path d="M62.7761 21.367L58.1996 13.8936C58.0265 13.6263 57.7908 13.4052 57.513 13.2495C57.2352 13.0938 56.9237 13.0081 56.6053 13H32.4179C32.2764 12.9998 32.1356 13.02 31.9999 13.0598C31.8641 13.02 31.7234 12.9998 31.5819 13H7.39331C7.07486 13.0084 6.76322 13.0941 6.48528 13.2498C6.20734 13.4055 5.97144 13.6264 5.79793 13.8936L1.22282 21.368C1.08707 21.572 1.01029 21.8095 1.00096 22.0544C0.991638 22.2992 1.05013 22.5419 1.16997 22.7556C1.28982 22.9693 1.46637 23.1458 1.68015 23.2655C1.89392 23.3853 2.13662 23.4436 2.38147 23.4342H26.5708C26.8891 23.4255 27.2004 23.3396 27.4781 23.1839C27.7559 23.0283 27.9916 22.8075 28.1651 22.5405L31.9999 16.2756L35.8347 22.5405C36.008 22.8076 36.2437 23.0286 36.5214 23.1843C36.7992 23.34 37.1106 23.4257 37.4289 23.4342H61.6186C61.8636 23.4435 62.1064 23.385 62.3202 23.2651C62.534 23.1452 62.7105 22.9686 62.8303 22.7547C62.9501 22.5408 63.0085 22.298 62.999 22.0531C62.9895 21.8081 62.9121 21.571 62.7761 21.367Z" fill="#C26733"/>
<path d="M26.5707 24.5577H5.85107V43.4459C5.85654 43.8197 5.98735 44.181 6.22255 44.4716C6.45775 44.7623 6.78372 44.9656 7.14822 45.049L30.6254 50.0711V20.673L29.1231 23.1287C28.8484 23.5587 28.4716 23.9142 28.0263 24.1635C27.581 24.4128 27.081 24.5483 26.5707 24.5577ZM34.8768 23.1287L33.3734 20.673V50.0711L56.8492 45.049C57.214 44.966 57.5403 44.7629 57.7758 44.4721C58.0112 44.1814 58.1421 43.8199 58.1474 43.4459V24.5577H37.4288C36.9186 24.5483 36.4186 24.413 35.9734 24.1636C35.5281 23.9143 35.1514 23.5588 34.8768 23.1287Z" fill="#C26733"/>
</svg>
