<svg width="50" height="50" viewBox="0 0 50 50" fill="none" xmlns="http://www.w3.org/2000/svg">
<g clip-path="url(#clip0_567_1365)">
<path d="M4.68742 26.7291H3.677C2.802 26.7291 2.08325 26.0103 2.08325 25.1353V14.4583H42.1874V20.1458H43.7499V3.677C43.7499 1.93742 42.3333 0.520752 40.5937 0.520752H3.677C1.93742 0.520752 0.520752 1.93742 0.520752 3.677V25.1353C0.520752 26.8749 1.93742 28.2916 3.677 28.2916H4.68742V26.7291ZM2.08325 3.677C2.08325 2.802 2.802 2.08325 3.677 2.08325H40.5937C41.4687 2.08325 42.1874 2.802 42.1874 3.677V6.82284H2.08325V3.677Z" fill="#C26733"/>
<path d="M46.3229 21.7083H9.40625C7.66667 21.7083 6.25 23.1249 6.25 24.8645V46.3228C6.25 48.0624 7.66667 49.4791 9.40625 49.4791H46.3229C48.0625 49.4791 49.4792 48.0624 49.4792 46.3228V24.8645C49.4792 23.1249 48.0625 21.7083 46.3229 21.7083ZM15.4896 44.7812H10.5417V43.2187H15.4896V44.7812ZM14.9583 34.5624C12.5208 34.5624 10.5417 32.5833 10.5417 30.1458C10.5417 27.7083 12.5208 25.7291 14.9583 25.7291C15.5417 25.7291 16.1042 25.8437 16.6146 26.0624C15.6042 27.1353 14.9896 28.5728 14.9896 30.1562C14.9896 31.7395 15.6146 33.177 16.6146 34.2499C16.1042 34.4374 15.5417 34.5624 14.9583 34.5624ZM25.3854 44.7812H20.4375V43.2187H25.3854V44.7812ZM20.9687 34.5624C18.5312 34.5624 16.5521 32.5833 16.5521 30.1458C16.5521 27.7083 18.5312 25.7291 20.9687 25.7291C23.4062 25.7291 25.3854 27.7083 25.3854 30.1458C25.3854 32.5833 23.4062 34.5624 20.9687 34.5624ZM35.2917 44.7812H30.3437V43.2187H35.2917V44.7812ZM37.5104 34.5103L36.4062 33.4062C36.9375 32.8749 36.9375 32.0103 36.4062 31.4895L37.5104 30.3853C38.6562 31.5208 38.6562 33.3749 37.5104 34.5103ZM38.8854 35.8749C39.8021 34.9583 40.3125 33.7395 40.3125 32.4374C40.3125 31.1353 39.8125 29.9166 38.8854 28.9999L39.9896 27.8958C41.1979 29.1041 41.8646 30.7187 41.8646 32.4374C41.8646 34.1562 41.1979 35.7603 39.9896 36.9791L38.8854 35.8749ZM45.1979 44.7812H40.25V43.2187H45.1979V44.7812ZM42.5104 39.4999L41.4062 38.3958C44.6875 35.1145 44.6875 29.7708 41.4062 26.4895L42.5104 25.3853C46.3958 29.2812 46.3958 35.6145 42.5104 39.4999Z" fill="#C26733"/>
</g>
<defs>
<clipPath id="clip0_567_1365">
<rect width="50" height="50" fill="white"/>
</clipPath>
</defs>
</svg>
