<svg width="50" height="50" viewBox="0 0 50 50" fill="none" xmlns="http://www.w3.org/2000/svg">
<path d="M5.33423 35.0763H2.80319C2.69771 35.0763 2.59327 35.0967 2.49582 35.1364C2.39836 35.176 2.30982 35.2342 2.23523 35.3075C2.16065 35.3808 2.10149 35.4678 2.06112 35.5635C2.02076 35.6593 1.99999 35.7619 2 35.8656V49.2016C1.99963 49.4119 2.08384 49.6138 2.23428 49.7634C2.38472 49.913 2.58921 49.998 2.80319 50.0001H5.33423C5.54968 50 5.75626 49.9158 5.9086 49.7661C6.06095 49.6164 6.14661 49.4133 6.14677 49.2016V35.8656C6.1465 35.7612 6.12524 35.658 6.0842 35.5617C6.04316 35.4655 5.98315 35.3782 5.90763 35.3048C5.8321 35.2314 5.74256 35.1735 5.64415 35.1343C5.54575 35.095 5.44042 35.0753 5.33423 35.0763ZM47.6143 35.2966C47.5451 35.1337 47.443 34.9864 47.3143 34.8634C47.1855 34.7404 47.0328 34.6442 46.8652 34.5808C46.6977 34.5173 46.5188 34.4879 46.3394 34.4942C46.1599 34.5004 45.9836 34.5424 45.8211 34.6174L34.4643 39.4635C34.4316 39.4777 34.397 39.487 34.3615 39.491C31.3668 40.6195 26.5649 40.1329 23.3502 40.2438C23.2284 40.2408 23.1126 40.1911 23.0275 40.1053C22.9425 40.0196 22.8949 39.9046 22.8949 39.7848C22.8949 39.6651 22.9425 39.55 23.0275 39.4643C23.1126 39.3786 23.2284 39.3289 23.3502 39.3258H28.543C30.1308 39.3289 31.7157 39.1907 33.2781 38.9128C33.697 38.843 34.0742 38.6219 34.3356 38.2928C34.597 37.9637 34.7238 37.5504 34.691 37.1342C34.6583 36.7179 34.4683 36.3287 34.1585 36.0431C33.8486 35.7574 33.4413 35.5959 33.0165 35.5903C30.523 35.5614 26.6176 35.7846 24.2188 35.1222L20.3896 34.2136C17.3877 33.5096 14.2284 33.8908 11.489 35.2874L7.08072 37.5544V47.3292C11.1741 45.0157 16.1694 43.9316 20.8005 45.1724C21.9278 45.5222 23.089 45.7559 24.2655 45.8699C26.1889 45.7737 29.9491 46.2541 31.6437 45.1632L47.0259 36.9486C47.3164 36.7954 47.5379 36.5408 47.6468 36.235C47.7557 35.9292 47.7441 35.5944 47.6143 35.2966ZM9.75181 21.1437L12.6097 23.1813C12.6375 23.2002 12.6588 23.2271 12.6705 23.2583C12.6822 23.2895 12.6838 23.3235 12.6751 23.3557L11.5824 26.6599C11.4568 27.0589 11.4616 27.4866 11.5961 27.8828C11.7306 28.279 11.988 28.6239 12.3322 28.8689C12.6764 29.114 13.09 29.2469 13.515 29.2491C13.9401 29.2512 14.3551 29.1225 14.7018 28.8809L17.5597 26.8434C17.5874 26.8254 17.6199 26.8158 17.6531 26.8158C17.6863 26.8158 17.7187 26.8254 17.7465 26.8434L20.6044 28.881C20.9464 29.1376 21.3648 29.2766 21.7951 29.2766C22.2255 29.2766 22.6439 29.1376 22.9859 28.881C23.3342 28.6368 23.5937 28.2894 23.7265 27.8897C23.8593 27.49 23.8583 27.059 23.7238 26.6599L22.631 23.3557C22.6185 23.3247 22.6172 23.2904 22.6274 23.2587C22.6376 23.2269 22.6587 23.1995 22.6871 23.1813L25.545 21.1438C25.8921 20.8963 26.1505 20.547 26.283 20.1462C26.4156 19.7454 26.4154 19.3136 26.2826 18.9128C26.1498 18.5121 25.8912 18.163 25.5438 17.9158C25.1965 17.6685 24.7784 17.5358 24.3495 17.5367H20.8191C20.7856 17.5361 20.7532 17.5251 20.7264 17.5053C20.6996 17.4855 20.6798 17.458 20.6697 17.4266L19.577 14.1316C19.4412 13.7347 19.1819 13.3897 18.8359 13.1453C18.4899 12.901 18.0745 12.7695 17.6484 12.7695C17.2223 12.7695 16.8069 12.901 16.4609 13.1454C16.1149 13.3898 15.8557 13.7347 15.7198 14.1316L14.6271 17.4266C14.6183 17.4587 14.5988 17.487 14.5717 17.507C14.5446 17.5269 14.5115 17.5374 14.4777 17.5367H10.9472C10.5223 17.5437 10.1102 17.6809 9.76842 17.9291C9.42662 18.1773 9.17217 18.5241 9.04056 18.9213C8.90895 19.3184 8.90674 19.746 9.03424 20.1444C9.16174 20.5428 9.4126 20.8921 9.75181 21.1437ZM36.1173 17.5367H32.587C32.1589 17.5377 31.7422 17.6718 31.3964 17.9198C31.0506 18.1677 30.7934 18.5169 30.6618 18.9172C30.5302 19.3174 30.5308 19.7484 30.6635 20.1483C30.7963 20.5483 31.0544 20.8967 31.4008 21.1437L34.2494 23.1813C34.2788 23.1987 34.3014 23.2255 34.3133 23.2572C34.3251 23.2889 34.3257 23.3236 34.3148 23.3557L33.2221 26.6599C33.0966 27.0589 33.1014 27.4866 33.2359 27.8828C33.3703 28.279 33.6278 28.6239 33.9719 28.8689C34.3161 29.114 34.7298 29.2469 35.1548 29.2491C35.5798 29.2512 35.9948 29.1225 36.3415 28.8809L39.1994 26.8434C39.2271 26.8254 39.2596 26.8159 39.2928 26.8159C39.326 26.8159 39.3585 26.8254 39.3862 26.8434L42.2441 28.881C42.5865 29.1367 43.0048 29.2751 43.4349 29.2751C43.865 29.2751 44.2832 29.1367 44.6257 28.881C44.9739 28.6368 45.2335 28.2894 45.3662 27.8897C45.499 27.49 45.4981 27.059 45.3635 26.6599L44.2708 23.3557C44.2604 23.3245 44.2602 23.2909 44.2703 23.2596C44.2803 23.2284 44.3001 23.201 44.3268 23.1813L47.1847 21.1438C47.5251 20.8927 47.777 20.5434 47.9052 20.1446C48.0334 19.7458 48.0315 19.3176 47.8997 18.92C47.7679 18.5224 47.5128 18.1752 47.1702 17.9272C46.8276 17.6791 46.4146 17.5426 45.9891 17.5367H42.4589C42.4254 17.5361 42.3929 17.5251 42.3661 17.5053C42.3393 17.4856 42.3195 17.458 42.3095 17.4266L41.2167 14.1316C41.0793 13.7362 40.8195 13.3929 40.4736 13.1499C40.1278 12.9068 39.7133 12.7761 39.2881 12.7761C38.8629 12.7761 38.4484 12.9068 38.1025 13.1499C37.7567 13.393 37.4969 13.7363 37.3595 14.1317L36.2761 17.4266C36.264 17.4586 36.2424 17.4862 36.214 17.5058C36.1857 17.5255 36.152 17.5362 36.1173 17.5367Z" fill="#C26733"/>
<path d="M20.6511 8.3676L23.509 10.4051C23.5352 10.4253 23.5545 10.4527 23.5645 10.4838C23.5745 10.5149 23.5747 10.5483 23.5651 10.5795L22.4724 13.8837C22.3471 14.2829 22.3519 14.7106 22.4861 15.1069C22.6204 15.5033 22.8774 15.8485 23.2211 16.0943C23.5649 16.34 23.9782 16.4741 24.4033 16.4776C24.8284 16.4811 25.2439 16.3539 25.5918 16.1139L28.4497 14.0673C28.4774 14.0493 28.5099 14.0397 28.543 14.0397C28.5762 14.0397 28.6087 14.0493 28.6364 14.0673L31.4943 16.114C31.841 16.3611 32.2584 16.494 32.6866 16.4937C33.1149 16.4934 33.5321 16.3599 33.8784 16.1123C34.2247 15.8647 34.4824 15.5157 34.6145 15.1154C34.7466 14.715 34.7463 14.2839 34.6138 13.8837L33.5211 10.5796C33.5114 10.5484 33.5116 10.515 33.5216 10.4839C33.5316 10.4527 33.5509 10.4253 33.5771 10.4052L36.435 8.36764C36.7815 8.12061 37.0396 7.77218 37.1723 7.37224C37.3051 6.9723 37.3057 6.54134 37.174 6.14104C37.0424 5.74074 36.7853 5.39163 36.4395 5.14366C36.0937 4.8957 35.6769 4.7616 35.2488 4.76055H31.7092C31.6768 4.76055 31.6452 4.7509 31.6185 4.73288C31.5918 4.71486 31.5713 4.68931 31.5597 4.65961L30.467 1.35541C30.3307 0.960227 30.0718 0.616957 29.7267 0.373842C29.3816 0.130727 28.9676 -1.18274e-05 28.543 8.02515e-10C28.1184 1.1829e-05 27.7045 0.130773 27.3594 0.373908C27.0143 0.617042 26.7554 0.960327 26.6191 1.35552L25.5264 4.65956C25.5148 4.68926 25.4943 4.71481 25.4676 4.73283C25.4409 4.75085 25.4093 4.76049 25.3769 4.76049H21.8373C21.4123 4.76773 21.0003 4.90533 20.6588 5.15403C20.3173 5.40273 20.0635 5.75011 19.9328 6.14757C19.8021 6.54502 19.801 6.97269 19.9298 7.37074C20.0587 7.76879 20.3108 8.11733 20.6511 8.3676Z" fill="#C26733"/>
</svg>
