<svg width="51" height="40" viewBox="0 0 51 40" fill="none" xmlns="http://www.w3.org/2000/svg">
<path d="M0.523926 40L51.0001 33.2425V0L0.523926 6.7575V40ZM3.13882 9.05125L48.389 3V30.9488L3.13882 37V9.05125Z" fill="#F43E36"/>
<path d="M7.39725 19.2487C7.83381 19.4677 8.29318 19.6375 8.76697 19.755C9.12744 19.8348 9.49872 19.8529 9.86522 19.8087C10.1843 19.7775 10.4873 19.6533 10.7368 19.4512C10.837 19.3739 10.9183 19.2747 10.9748 19.1613C11.0313 19.0479 11.0615 18.9231 11.0631 18.7962C11.0631 18.4387 10.6771 18.0875 9.90008 17.7475C9.77556 17.6937 9.68093 17.6462 9.60871 17.6225L9.02098 17.3725C8.52118 17.1787 8.081 16.8562 7.74466 16.4375C7.46138 16.0492 7.31504 15.5773 7.32876 15.0962C7.32815 14.7509 7.3985 14.4092 7.5354 14.0924C7.67231 13.7755 7.87283 13.4905 8.12444 13.255C8.68386 12.7162 9.40656 12.3805 10.1778 12.3012C10.5121 12.2577 10.85 12.2477 11.1864 12.2712C11.5915 12.3023 11.9941 12.3599 12.3917 12.4437V14.5C12.0092 14.3068 11.6072 14.1551 11.1926 14.0475C10.8805 13.9581 10.5544 13.928 10.2313 13.9587C9.97676 13.9837 9.73514 14.0833 9.53649 14.245C9.45666 14.3119 9.39282 14.3959 9.34972 14.4909C9.30661 14.5859 9.28533 14.6894 9.28745 14.7937C9.28499 14.9425 9.33781 15.0869 9.43562 15.1987C9.55968 15.3345 9.71421 15.4387 9.88638 15.5025L10.9074 15.9312C11.5579 16.1562 12.1486 16.5273 12.6345 17.0162C12.9406 17.4072 13.0985 17.8944 13.0803 18.3912C13.0876 18.7956 13.0143 19.1973 12.8646 19.5728C12.7149 19.9483 12.4919 20.2899 12.2087 20.5775C11.5882 21.2003 10.7729 21.5897 9.90008 21.68C9.54766 21.7217 9.19252 21.7355 8.83794 21.7212C8.4155 21.6996 7.99495 21.6499 7.57905 21.5725L7.39725 19.2487ZM17.3102 13.2362L17.025 13.2775V15.6137L17.3986 15.56C17.8377 15.5249 18.2568 15.361 18.6039 15.0887C18.7388 14.9743 18.8462 14.8308 18.9182 14.6689C18.9902 14.507 19.0249 14.3309 19.0198 14.1537C19.0372 13.9916 19.0078 13.828 18.9352 13.6822C18.8625 13.5364 18.7497 13.4146 18.6102 13.3312C18.1962 13.1692 17.743 13.1365 17.3102 13.2375V13.2362ZM14.9443 20.7087V11.9437L17.1857 11.64C17.7287 11.5501 18.2806 11.5262 18.8293 11.5687C19.212 11.6079 19.5812 11.7322 19.9101 11.9325C20.229 12.1194 20.4898 12.3916 20.6635 12.7187C20.8424 13.056 20.934 13.4329 20.93 13.815C20.9388 14.2333 20.8592 14.6488 20.6965 15.034C20.5339 15.4192 20.2917 15.7655 19.9861 16.05C19.2753 16.6907 18.3783 17.0851 17.4272 17.175C17.3139 17.1925 17.2317 17.1987 17.1782 17.205C17.1247 17.2112 17.0711 17.205 17.0238 17.2175V20.4237L14.9443 20.7087ZM23.6607 16.7525L25.9518 16.4425L24.8187 13.85L23.6607 16.7525ZM20.3895 19.9762L24.8473 10.3412L24.9718 10.3237L29.3225 18.7725L27.1447 19.065L26.5931 17.8675L23.0493 18.3437L22.4852 19.6962L20.3895 19.9762ZM36.7961 11.7775C36.4641 11.4668 36.075 11.2239 35.6506 11.0625C35.2584 10.9249 34.8395 10.8821 34.4278 10.9375C33.7152 11.023 33.0648 11.3868 32.6173 11.95C32.1441 12.5327 31.8937 13.2659 31.9113 14.0175C31.8893 14.3586 31.9406 14.7005 32.0615 15.0201C32.1825 15.3397 32.3703 15.6295 32.6123 15.87C32.857 16.0886 33.1488 16.2475 33.4648 16.3343C33.7808 16.421 34.1125 16.4332 34.434 16.37C34.9005 16.3038 35.3499 16.148 35.7577 15.9112C36.238 15.6316 36.6808 15.2913 37.0751 14.8987L36.9381 17.2462C36.5665 17.5511 36.1551 17.8035 35.7153 17.9962C35.2747 18.1902 34.8089 18.3207 34.3319 18.3837C33.8404 18.454 33.3407 18.44 32.8539 18.3425C32.3891 18.2468 31.9461 18.0649 31.5477 17.8062C30.9958 17.4479 30.5491 16.9482 30.2539 16.3587C29.9494 15.7277 29.7967 15.0336 29.8081 14.3325C29.8066 13.6926 29.9192 13.0575 30.1406 12.4575C30.3638 11.8593 30.6891 11.3048 31.1019 10.8187C31.5187 10.3334 32.0194 9.92773 32.5799 9.62124C33.1271 9.31996 33.7247 9.12208 34.3431 9.03748C34.8082 8.97144 35.2806 8.97735 35.744 9.05499C36.1919 9.13196 36.6235 9.28498 37.0203 9.50749L36.7961 11.7775ZM38.7884 17.4975V8.73249L44.1664 8.01123V9.81623L40.8131 10.2687V11.8537L43.6858 11.4662V13.2612L40.8131 13.6487V15.3862L44.2137 14.9275V16.775L38.7884 17.4975Z" fill="white"/>
<path d="M17.2333 28.7711L19.5306 28.461L18.3913 25.8685L17.2333 28.7711ZM13.9622 31.9948L18.4137 22.3598L18.5382 22.3423L22.8964 30.7911L20.7186 31.0835L20.1669 29.8798L16.6231 30.356L16.0591 31.7085L13.9622 31.9948ZM26.2895 23.1823L26.0044 23.2235V25.5648L26.3779 25.5111C26.817 25.4759 27.2362 25.3121 27.5833 25.0398C27.718 24.9253 27.8254 24.7817 27.8974 24.6199C27.9694 24.458 28.0042 24.282 27.9992 24.1048C28.0165 23.9427 27.9871 23.779 27.9145 23.6332C27.8419 23.4874 27.7291 23.3656 27.5895 23.2823C27.1764 23.1171 26.7229 23.0822 26.2895 23.1823ZM23.9237 30.6548V21.8898L26.165 21.586C26.708 21.4961 27.2599 21.4721 27.8087 21.5148C28.1914 21.554 28.5606 21.6783 28.8895 21.8786C29.2083 22.0655 29.4691 22.3377 29.6428 22.6648C29.8222 23.0019 29.9142 23.3789 29.9105 23.761C29.9193 24.1794 29.8398 24.5948 29.6771 24.9801C29.5144 25.3653 29.2723 25.7116 28.9667 25.9961C28.256 26.6368 27.3589 27.0312 26.4078 27.1211C26.2945 27.1323 26.2123 27.1448 26.1588 27.151C26.1053 27.1573 26.0517 27.151 26.0044 27.1623V30.3685L23.9237 30.6548ZM33.9375 22.1548L33.6523 22.1961V24.5373L34.0259 24.4835C34.465 24.4483 34.8841 24.2845 35.2312 24.0123C35.3661 23.8978 35.4735 23.7543 35.5455 23.5925C35.6175 23.4306 35.6522 23.2545 35.6471 23.0773C35.6645 22.9152 35.6351 22.7516 35.5624 22.6058C35.4898 22.4599 35.377 22.3381 35.2374 22.2548C34.8242 22.0886 34.3704 22.0524 33.9362 22.151L33.9375 22.1548ZM31.5716 29.6273V20.8623L33.813 20.5586C34.356 20.4686 34.9079 20.4447 35.4566 20.4873C35.8393 20.5265 36.2085 20.6508 36.5374 20.8511C36.8563 21.038 37.1171 21.3102 37.2908 21.6373C37.4702 21.9744 37.5622 22.3514 37.5585 22.7335C37.5673 23.1519 37.4878 23.5673 37.3251 23.9526C37.1624 24.3378 36.9203 24.684 36.6146 24.9685C35.9039 25.6092 35.0068 26.0036 34.0558 26.0936C33.9425 26.1061 33.8603 26.1173 33.8067 26.1235C33.7532 26.1298 33.6996 26.1236 33.6523 26.1361V29.3335L31.5716 29.6273Z" fill="white"/>
</svg>
