<svg width="64" height="64" viewBox="0 0 64 64" fill="none" xmlns="http://www.w3.org/2000/svg">
<path d="M51.5957 50.6086L55.5896 30.9568C55.7607 30.1209 55.7433 29.2574 55.5388 28.429C55.3343 27.6007 54.9478 26.8283 54.4073 26.168C53.8675 25.5063 53.1871 24.973 52.4155 24.607C51.6439 24.241 50.8004 24.0513 49.9464 24.0518H40.3291L41.9088 16.2925C42.2665 14.4942 41.8095 12.6462 40.657 11.2354C40.0862 10.5353 39.3664 9.97126 38.55 9.58454C37.7336 9.19782 36.8412 8.99813 35.9378 9.00001H34.3382C33.0963 9.00001 32.0829 10.0035 32.0829 11.2354C32.0829 13.908 31.0795 20.9024 21.9192 27.9266L21.5317 28.2246V51.2942L23.8566 53.0527C25.2092 54.0687 26.8544 54.6194 28.546 54.6225H46.6777C49.0523 54.6225 51.1188 52.9335 51.5957 50.6086ZM9.53996 55H18.0147C18.8592 55 19.5447 54.3145 19.5447 53.47V27.8074C19.5447 26.9529 18.8592 26.2674 18.0147 26.2674H9.53996C8.68553 26.2674 8 26.9529 8 27.8074V53.47C8 54.3145 8.68553 55 9.53996 55ZM14.279 46.1279C15.6004 46.1279 16.6734 47.2009 16.6734 48.5322C16.6734 49.8734 15.6004 50.9464 14.279 50.9464C13.9568 50.9557 13.636 50.9002 13.3356 50.7833C13.0352 50.6664 12.7614 50.4904 12.5302 50.2658C12.299 50.0411 12.1152 49.7724 11.9897 49.4755C11.8642 49.1786 11.7996 48.8595 11.7996 48.5372C11.7996 48.2148 11.8642 47.8957 11.9897 47.5988C12.1152 47.3019 12.299 47.0332 12.5302 46.8085C12.7614 46.5839 13.0352 46.4079 13.3356 46.291C13.636 46.1741 13.9568 46.1186 14.279 46.1279Z" fill="#C26633"/>
</svg>
