<svg width="50" height="50" viewBox="0 0 50 50" fill="none" xmlns="http://www.w3.org/2000/svg">
<g clip-path="url(#clip0_567_29)">
<path d="M49.9948 15.3555C50.0389 14.6459 49.801 13.9477 49.3329 13.4126C48.8647 12.8776 48.2042 12.5491 47.4951 12.4987H32.4966V3.33299C32.5481 2.50516 32.2706 1.69049 31.7244 1.06629C31.1782 0.442077 30.4076 0.0588482 29.5803 0C28.7529 0.0588482 27.9823 0.442077 27.4361 1.06629C26.8899 1.69049 26.6124 2.50516 26.6639 3.33299V32.4966H44.1621C44.8712 32.4462 45.5317 32.1177 45.9999 31.5826C46.4681 31.0476 46.7059 30.3493 46.6618 29.6398C46.6661 28.9416 46.4323 28.2629 45.9989 27.7156C46.6717 27.6197 47.2841 27.2751 47.7153 26.7499C48.1465 26.2247 48.3652 25.5569 48.3283 24.8783C48.3357 24.1047 48.0476 23.3574 47.5227 22.789C48.0267 22.552 48.4504 22.1727 48.7416 21.698C49.0328 21.2232 49.1787 20.6736 49.1615 20.1169C49.1689 19.3433 48.8808 18.596 48.356 18.0276C48.86 17.7906 49.2836 17.4113 49.5748 16.9365C49.866 16.4618 50.012 15.9122 49.9948 15.3555ZM4.20443 49.9948L10.9556 30.9869L11.1201 30.8284C11.2208 30.7356 11.3445 30.6714 11.4784 30.6425L19.1647 49.9001V41.9781L23.3309 45.5711L17.8378 32.4966H24.9974V14.1652H16.5494C16.5987 14.2818 16.6389 14.4021 16.6698 14.5249L16.9229 15.8447L18.1394 15.6974C18.5689 15.6443 19.0048 15.7067 19.4022 15.8782C19.7995 16.0497 20.144 16.3241 20.3999 16.6731C20.666 17.0318 20.8326 17.4545 20.8829 17.8983C20.9332 18.3421 20.8654 18.7913 20.6864 19.2005L20.1233 20.4894L21.2698 21.1656C21.6442 21.3896 21.9542 21.7068 22.1694 22.0863C22.3846 22.4658 22.4977 22.8946 22.4977 23.3309C22.4977 23.7672 22.3846 24.196 22.1694 24.5755C21.9542 24.955 21.6442 25.2723 21.2698 25.4962L20.1224 26.1724L20.6863 27.4613C20.8653 27.8707 20.9329 28.3201 20.8825 28.7641C20.8321 29.208 20.6653 29.6307 20.3991 29.9896C20.1432 30.3388 19.7987 30.6133 19.4011 30.7847C19.0035 30.9561 18.5674 31.0182 18.1378 30.9644L17.0706 30.9034L16.1895 29.0735C16.2301 29.0669 16.2711 29.0638 16.3122 29.0641L18.3393 29.3104C18.4844 29.3223 18.6302 29.2958 18.7619 29.2337C18.8936 29.1715 19.0067 29.0759 19.0898 28.9563C19.1729 28.8366 19.2231 28.6973 19.2354 28.5522C19.2477 28.4071 19.2216 28.2613 19.1599 28.1294L18.3106 26.188C18.2263 25.9981 18.2138 25.7841 18.2755 25.5857C18.3371 25.3873 18.4686 25.218 18.6456 25.1093L20.4235 24.0609C20.5481 23.9841 20.651 23.8768 20.7223 23.749C20.7937 23.6212 20.8312 23.4773 20.8312 23.3309C20.8312 23.1845 20.7937 23.0406 20.7223 22.9128C20.651 22.785 20.5481 22.6777 20.4235 22.6009L18.6456 21.5526C18.4686 21.4438 18.3371 21.2745 18.2755 21.0761C18.2139 20.8777 18.2264 20.6637 18.3107 20.4738L19.1599 18.5327C19.2217 18.4008 19.2477 18.255 19.2354 18.1098C19.2231 17.9647 19.1729 17.8254 19.0898 17.7058C19.0067 17.5861 18.8937 17.4905 18.762 17.4283C18.6303 17.3661 18.4845 17.3396 18.3394 17.3515L16.3123 17.5978C16.1086 17.6188 15.9046 17.5616 15.7416 17.4376C15.5786 17.3136 15.4689 17.1323 15.4348 16.9304L15.0333 14.8388C15.0113 14.6959 14.9506 14.5618 14.8577 14.451C14.7648 14.3402 14.6433 14.257 14.5064 14.2105C14.3695 14.1639 14.2225 14.1558 14.0813 14.187C13.9401 14.2182 13.8102 14.2875 13.7057 14.3874L12.205 15.8333C12.0602 15.9753 11.8654 16.0548 11.6626 16.0548C11.4597 16.0548 11.2649 15.9753 11.1201 15.8333L9.61941 14.3874C9.51795 14.2877 9.39061 14.2184 9.25179 14.1874C9.11298 14.1563 8.96825 14.1648 8.83399 14.2118C8.69973 14.2588 8.58132 14.3424 8.49216 14.4532C8.40301 14.5641 8.34667 14.6977 8.32954 14.8389L7.89042 16.9303C7.85629 17.1322 7.74659 17.3136 7.5836 17.4375C7.42061 17.5615 7.21656 17.6187 7.01288 17.5977L4.98581 17.3514C4.84065 17.3395 4.69492 17.366 4.56321 17.4281C4.4315 17.4903 4.31843 17.586 4.23533 17.7056C4.15224 17.8252 4.10203 17.9645 4.08973 18.1097C4.07744 18.2548 4.10349 18.4006 4.16527 18.5325L5.01444 20.4738C5.0987 20.6637 5.11119 20.8777 5.04958 21.0761C4.98798 21.2745 4.85647 21.4438 4.67947 21.5525L2.90156 22.6009C2.77695 22.6777 2.67406 22.785 2.6027 22.9128C2.53133 23.0406 2.49387 23.1845 2.49387 23.3309C2.49387 23.4773 2.53133 23.6212 2.6027 23.749C2.67406 23.8768 2.77695 23.9841 2.90156 24.0609L4.67938 25.1092C4.85638 25.218 4.98789 25.3873 5.04949 25.5857C5.1111 25.7841 5.09861 25.9981 5.01434 26.188L4.16517 28.1291C4.10337 28.261 4.07731 28.4068 4.0896 28.552C4.10189 28.6971 4.1521 28.8364 4.2352 28.9561C4.3183 29.0757 4.43136 29.1714 4.56308 29.2335C4.6948 29.2957 4.84053 29.3222 4.9857 29.3103L6.3505 29.1445L0 45.2L4.16623 41.8097L4.20443 49.9948ZM11.6655 19.9979C12.3247 19.9979 12.9691 20.1934 13.5172 20.5596C14.0653 20.9259 14.4925 21.4464 14.7447 22.0554C14.997 22.6644 15.063 23.3346 14.9344 23.9811C14.8058 24.6277 14.4884 25.2216 14.0222 25.6877C13.5561 26.1538 12.9622 26.4712 12.3157 26.5998C11.6691 26.7285 10.999 26.6624 10.39 26.4102C9.78095 26.1579 9.26041 25.7307 8.89417 25.1826C8.52794 24.6345 8.33247 23.9901 8.33247 23.3309C8.33247 22.4469 8.68362 21.5992 9.30867 20.9741C9.93373 20.3491 10.7815 19.9979 11.6655 19.9979Z" fill="#C26733"/>
</g>
<defs>
<clipPath id="clip0_567_29">
<rect width="50" height="50" fill="white"/>
</clipPath>
</defs>
</svg>
